<svg width="178" height="48" viewBox="0 0 178 48" fill="none" xmlns="http://www.w3.org/2000/svg">
<g clip-path="url(#clip0_8_8)">
<path d="M173.529 34.9356H174.337V38.6831C174.337 39.0174 174.45 39.2932 174.678 39.5062C174.906 39.7226 175.208 39.8299 175.585 39.8299C175.982 39.8299 176.294 39.7254 176.522 39.5168C176.751 39.3082 176.866 39.0229 176.866 38.6659V34.9356H177.67V38.7426C177.67 39.296 177.485 39.7287 177.112 40.0368C176.742 40.3494 176.233 40.5034 175.591 40.5034C174.932 40.5034 174.423 40.351 174.066 40.049C173.709 39.7454 173.529 39.3082 173.529 38.7398V34.9356Z" fill="#EC2024"/>
<path d="M171.326 39.2526C171.051 39.6185 170.658 39.8121 170.148 39.8304C170.121 39.8304 170.094 39.8304 170.068 39.8304C169.579 39.8304 169.203 39.6213 168.937 39.2003C168.67 38.7787 168.536 38.2548 168.536 37.6258C168.536 36.9751 168.665 36.4578 168.927 36.0791C169.187 35.7009 169.568 35.5113 170.068 35.5113C170.094 35.5113 170.121 35.5113 170.148 35.5129C171.221 35.5463 171.758 36.2504 171.758 37.6264C171.758 38.3243 171.613 38.8666 171.326 39.2526ZM171.95 35.5752C171.527 35.1002 170.927 34.8561 170.148 34.8405H170.068C169.34 34.8405 168.762 35.1064 168.333 35.6392C167.905 36.1742 167.69 36.8344 167.69 37.6264C167.69 38.4689 167.901 39.1603 168.321 39.6964C168.742 40.2353 169.323 40.504 170.068 40.504L170.148 40.5023C170.925 40.4878 171.525 40.2337 171.947 39.7415C172.385 39.2315 172.606 38.5251 172.606 37.6264C172.605 36.7498 172.386 36.0663 171.95 35.5752Z" fill="#EC2024"/>
<path d="M126.744 34.9356H125.939V40.41H126.744V34.9356Z" fill="#EC2024"/>
<path d="M131.909 40.4856L128.859 36.4846V40.41H128.093V34.9356H128.417L131.386 38.7209V34.9356H132.15V40.4856H131.909Z" fill="#EC2024"/>
<path d="M137.446 35.3177L137.112 35.9334C136.706 35.6548 136.309 35.5135 135.919 35.5135C135.304 35.5135 134.814 35.7171 134.458 36.1208C134.099 36.5252 133.922 37.0596 133.922 37.7248C133.922 38.3583 134.096 38.8666 134.447 39.2526C134.798 39.6386 135.275 39.8305 135.878 39.8305C136.308 39.8305 136.655 39.7114 136.922 39.4734V38.1903H136.105V37.5552H137.727V39.9389C137.512 40.1091 137.213 40.2454 136.829 40.3483C136.446 40.4511 136.073 40.5023 135.708 40.5023C134.896 40.5023 134.253 40.2481 133.783 39.7354C133.311 39.2226 133.075 38.5424 133.075 37.6931C133.075 36.8461 133.333 36.1575 133.851 35.632C134.368 35.1047 135.067 34.8416 135.944 34.8416C136.558 34.8428 137.06 35.0013 137.446 35.3177Z" fill="#EC2024"/>
<path d="M145.958 40.4856H145.704L144.298 36.7126L142.984 40.4856H142.732L140.871 34.9356H141.707L142.893 38.7587L144.19 34.9356H144.47L145.752 38.7515L146.957 34.9356H147.794L145.958 40.4856Z" fill="#EC2024"/>
<path d="M149.395 34.9356H148.591V40.41H149.395V34.9356Z" fill="#EC2024"/>
<path d="M152.896 35.608V40.41H152.09V35.608H150.214V34.9356H154.858V35.608H152.896Z" fill="#EC2024"/>
<path d="M158.916 40.41V37.7654H156.339V40.41H155.532V34.9356H156.339V37.1292H158.916V34.9356H159.722V40.41H158.916Z" fill="#EC2024"/>
<path d="M165.422 37.9601V40.41H164.618V37.9601L162.716 34.9356H163.548L165.016 37.3266L166.486 34.9356H167.317L165.422 37.9601Z" fill="#EC2024"/>
<path d="M122.819 37.405C122.694 37.4178 122.558 37.4256 122.408 37.4256C122.225 37.4256 122.037 37.4128 121.843 37.3878V35.6086C122.082 35.5841 122.238 35.5724 122.318 35.5724C122.503 35.5724 122.67 35.5813 122.819 35.5991C123.081 35.6297 123.289 35.6887 123.44 35.7732C123.675 35.9084 123.794 36.1297 123.794 36.4356C123.794 36.8077 123.684 37.0646 123.463 37.2087C123.311 37.3077 123.097 37.3733 122.819 37.405ZM123.483 37.8916C123.798 37.8266 124.069 37.6536 124.297 37.3789C124.525 37.103 124.639 36.7932 124.639 36.4495C124.639 35.4823 124.032 34.9618 122.819 34.8889C122.72 34.8833 122.619 34.88 122.513 34.88C122.335 34.88 122.054 34.8889 121.665 34.9078C121.277 34.9267 121.068 34.9356 121.039 34.9356V40.41H121.843V38.024C122.233 38.0468 122.517 38.0596 122.697 38.0596L122.819 38.2398L124.272 40.4094H125.194L123.483 37.8916Z" fill="#EC2024"/>
<path d="M117.972 38.7064H117.095L117.972 36.3972L118.01 36.2971L118.847 38.7064H117.972ZM118.154 34.8605H117.942L115.545 40.4105H116.447L116.881 39.2576H119.075L119.482 40.4105H120.377L118.154 34.8605Z" fill="#EC2024"/>
<path d="M100.258 35.4006V34.84C100.793 34.8455 101.207 34.9573 101.5 35.1781L101.166 35.7543C100.86 35.5163 100.584 35.3984 100.345 35.3984C100.316 35.3989 100.285 35.3989 100.258 35.4006Z" fill="#EC2024"/>
<path d="M106.502 40.1619L106.797 39.4739C106.947 39.5757 107.135 39.6614 107.359 39.7292C107.583 39.7976 107.784 39.831 107.96 39.831C108.274 39.831 108.527 39.7509 108.717 39.5913C108.908 39.4333 109.002 39.2298 109.002 38.9829C109.002 38.7982 108.951 38.628 108.845 38.4684C108.74 38.3116 108.472 38.1403 108.045 37.9512L107.569 37.7448C107.168 37.5707 106.886 37.3644 106.728 37.1264C106.567 36.885 106.485 36.5991 106.485 36.2632C106.485 35.8539 106.643 35.5135 106.953 35.2465C107.266 34.9768 107.666 34.8427 108.152 34.8427C108.806 34.8427 109.259 34.9417 109.516 35.1386L109.278 35.7882C109.171 35.7154 109.007 35.647 108.785 35.5802C108.565 35.5107 108.361 35.4784 108.173 35.4784C107.9 35.4784 107.684 35.5485 107.527 35.6937C107.369 35.8394 107.29 36.0252 107.29 36.2515C107.29 36.3911 107.32 36.5185 107.376 36.6325C107.433 36.7471 107.509 36.8427 107.611 36.92C107.712 36.9973 107.918 37.1058 108.23 37.2471L108.713 37.459C109.116 37.6347 109.398 37.8466 109.56 38.0913C109.723 38.3377 109.804 38.6492 109.804 39.0285C109.804 39.4389 109.627 39.7893 109.269 40.0741C108.913 40.3605 108.439 40.504 107.843 40.504C107.32 40.5034 106.874 40.3883 106.502 40.1619Z" fill="#EC2024"/>
<path d="M114.119 40.41V37.7654H111.541V40.41H110.735V34.9356H111.541V37.1292H114.119V34.9356H114.924V40.41H114.119Z" fill="#EC2024"/>
<path d="M100.463 39.851C100.39 39.851 100.322 39.8477 100.258 39.8421C99.5756 39.7798 99.2324 39.3944 99.2324 38.6831C99.2324 38.3499 99.3604 38.0324 99.6151 37.727H101.239V39.2376C101.239 39.4094 101.253 39.5513 101.282 39.6664C101.101 39.7904 100.826 39.851 100.463 39.851ZM103.181 39.7114C102.983 39.8015 102.813 39.851 102.668 39.851C102.424 39.851 102.252 39.7887 102.153 39.6619C102.053 39.5368 102.004 39.3043 102.004 38.9589V37.727H103.008V37.1286H102.004V36.162L101.239 36.4351V37.1191H99.7408C99.4299 36.8939 99.273 36.6208 99.273 36.2966C99.273 35.7232 99.6017 35.4239 100.258 35.4006V34.84H100.221C99.6991 34.84 99.2836 34.9746 98.9744 35.2454C98.6635 35.5135 98.5083 35.8405 98.5083 36.2232C98.5083 36.5975 98.6974 36.9606 99.0762 37.3093C98.8292 37.5357 98.6574 37.7554 98.5662 37.9662C98.4744 38.1781 98.4282 38.4278 98.4282 38.7187C98.4282 39.281 98.5806 39.7181 98.8871 40.0246C99.1935 40.331 99.6262 40.4862 100.187 40.4862L100.258 40.4851C100.78 40.4789 101.224 40.3888 101.597 40.2203C101.831 40.3972 102.072 40.4862 102.323 40.4862C102.685 40.4862 103.008 40.4472 103.288 40.3733L103.181 39.7114Z" fill="#EC2024"/>
<path d="M80.3428 40.4856H80.0903L78.6826 36.7126L77.3712 40.4856H77.1187L75.2567 34.9356H76.0942L77.2783 38.7587L78.5753 34.9356H78.8573L80.1381 38.7515L81.3422 34.9356H82.1804L80.3428 40.4856Z" fill="#EC2024"/>
<path d="M83.7821 34.9356H82.9763V40.41H83.7821V34.9356Z" fill="#EC2024"/>
<path d="M88.9462 40.4856L85.8972 36.4846V40.41H85.132V34.9356H85.454L88.4217 38.7209V34.9356H89.1886V40.4856H88.9462Z" fill="#EC2024"/>
<path d="M94.4844 35.3177L94.1485 35.9334C93.7431 35.6548 93.346 35.5135 92.9578 35.5135C92.3404 35.5135 91.8521 35.7171 91.4945 36.1208C91.1374 36.5252 90.96 37.0596 90.96 37.7248C90.96 38.3583 91.1341 38.8666 91.4845 39.2526C91.836 39.6386 92.3121 39.8305 92.9166 39.8305C93.3454 39.8305 93.693 39.7114 93.9594 39.4734V38.1903H93.143V37.5552H94.7653V39.9389C94.5501 40.1091 94.2498 40.2454 93.8677 40.3483C93.4834 40.4517 93.1096 40.5023 92.7464 40.5023C91.9344 40.5023 91.2909 40.2481 90.8204 39.7354C90.3477 39.2226 90.113 38.5424 90.113 37.6931C90.113 36.8461 90.3705 36.1575 90.8877 35.632C91.405 35.1047 92.1035 34.8416 92.9806 34.8416C93.5968 34.8428 94.0968 35.0013 94.4844 35.3177Z" fill="#EC2024"/>
<path d="M73.6031 39.2526C73.3284 39.6185 72.9352 39.8121 72.4252 39.8304C72.399 39.8304 72.3712 39.8304 72.3451 39.8304C71.8568 39.8304 71.4808 39.6213 71.215 39.2003C70.948 38.7787 70.814 38.2548 70.814 37.6258C70.814 36.9751 70.943 36.4578 71.2049 36.0791C71.4647 35.7009 71.8457 35.5113 72.3451 35.5113C72.3712 35.5113 72.3985 35.5113 72.4252 35.5129C73.4986 35.5463 74.0347 36.2504 74.0347 37.6264C74.0347 38.3243 73.8923 38.8666 73.6031 39.2526ZM74.2277 35.5752C73.805 35.1002 73.2055 34.8561 72.4252 34.8405H72.3451C71.6171 34.8405 71.0375 35.1064 70.6104 35.6392C70.1805 36.1742 69.9669 36.8344 69.9669 37.6264C69.9669 38.4689 70.1771 39.1603 70.5971 39.6964C71.0181 40.2353 71.6009 40.504 72.3445 40.504L72.4246 40.5023C73.2027 40.4878 73.8017 40.2337 74.2238 39.7415C74.661 39.2315 74.8818 38.5251 74.8818 37.6264C74.8829 36.7498 74.6637 36.0663 74.2277 35.5752Z" fill="#EC2024"/>
<path d="M63.9592 35.3177L63.625 35.9334C63.2195 35.6548 62.823 35.5135 62.4337 35.5135C61.8163 35.5135 61.3269 35.7171 60.9698 36.1208C60.6139 36.5252 60.4354 37.0596 60.4354 37.7248C60.4354 38.3583 60.6111 38.8666 60.9609 39.2526C61.3108 39.6386 61.7891 39.8305 62.392 39.8305C62.823 39.8305 63.17 39.7114 63.4359 39.4734V38.1903H62.62V37.5552H64.2407V39.9389C64.0271 40.1091 63.7268 40.2454 63.343 40.3483C62.9592 40.4511 62.5861 40.5023 62.2229 40.5023C61.4109 40.5023 60.7663 40.2481 60.2969 39.7354C59.8247 39.2226 59.5883 38.5424 59.5883 37.6931C59.5883 36.8461 59.8469 36.1575 60.3642 35.632C60.8814 35.1047 61.58 34.8416 62.457 34.8416C63.0716 34.8428 63.5727 35.0013 63.9592 35.3177Z" fill="#EC2024"/>
<path d="M67.2707 37.405C67.1455 37.4178 67.0093 37.4256 66.8596 37.4256C66.6767 37.4256 66.4892 37.4128 66.2963 37.3878V35.6086C66.5326 35.5841 66.6911 35.5724 66.7695 35.5724C66.9542 35.5724 67.1227 35.5813 67.2707 35.5991C67.5337 35.6297 67.7395 35.6887 67.8908 35.7732C68.1277 35.9084 68.2467 36.1297 68.2467 36.4356C68.2467 36.8077 68.1349 37.0646 67.9141 37.2087C67.7629 37.3077 67.5482 37.3733 67.2707 37.405ZM67.9358 37.8916C68.2495 37.8266 68.5198 37.6536 68.7489 37.3789C68.977 37.103 69.0904 36.7932 69.0904 36.4495C69.0904 35.4823 68.4837 34.9618 67.2707 34.8889C67.1733 34.8833 67.0704 34.88 66.9642 34.88C66.7868 34.88 66.5054 34.8889 66.1161 34.9078C65.7278 34.9267 65.5187 34.9356 65.4898 34.9356V40.41H66.2963V38.024C66.6856 38.0468 66.9698 38.0596 67.1505 38.0596L67.2712 38.2398L68.7234 40.4094H69.6472L67.9358 37.8916Z" fill="#EC2024"/>
<path fill-rule="evenodd" clip-rule="evenodd" d="M164.349 24.0153L161.861 24.1683L162.68 22.3262L163.325 20.943L163.851 19.8073L164.349 18.7623L164.379 18.7011L166.837 23.8612L164.349 24.0153ZM175.414 26.4563L173.95 24.1126L171.139 19.5565L167.596 13.8591L165.782 10.9359L164.612 9.05719H164.318L163.237 10.8692L162.328 12.4359L161.509 13.8491L160.777 15.1695L159.724 16.9815L158.523 19.1327L157.528 20.883L156.504 22.6955L155.801 23.8929L155.069 25.1827L152.494 29.6988L158.084 32.9841L158.552 31.9107L159.081 30.7121L159.549 29.6988L159.987 28.7455L168.856 28.1938L171.462 32.9841L177.258 29.3806L175.414 26.4563Z" fill="#003C7A"/>
<path fill-rule="evenodd" clip-rule="evenodd" d="M86.1831 13.7251C87.0229 12.8247 88.291 11.9693 89.9884 11.1606C91.6869 10.3514 93.7648 9.82469 96.2242 9.57831L97.0434 14.739C96.3404 14.739 95.7942 14.7551 95.4038 14.7851C95.0145 14.8157 94.609 14.863 94.1891 14.9231C93.7692 14.9848 93.4428 15.0515 93.2086 15.1227C92.975 15.1945 92.6914 15.3029 92.3605 15.4459C91.8149 15.7329 91.5396 16.1422 91.5396 16.6739C91.5396 16.9614 91.6953 17.2067 92.0073 17.4119C92.282 17.6577 92.8182 17.9848 93.618 18.3952L94.2036 18.7017L94.7019 19.0087L95.1407 19.2551C97.327 20.4831 98.4193 21.9986 98.4193 23.8006L98.3899 24.2622L98.3593 24.7222C98.2041 25.7044 97.8092 26.622 97.1758 27.4719C96.5406 28.3211 95.678 29.1059 94.5846 29.8222C93.4923 30.538 92.2325 31.122 90.8082 31.5719C90.1458 31.7972 89.4133 31.9918 88.613 32.1565C87.8127 32.3189 87.0035 32.4423 86.1831 32.5252L85.3639 27.3017C86.925 27.3017 88.3054 27.1126 89.5062 26.7338C90.7059 26.3545 91.306 25.8178 91.306 25.1215C91.306 24.8351 91.1552 24.5637 90.8527 24.3078C90.5496 24.0526 90.2721 23.8423 90.0179 23.6783C89.9206 23.5971 89.658 23.433 89.2276 23.1866L87.5585 22.1421C85.4901 20.7906 84.5869 19.2656 84.5869 17.5654C84.5869 16.8691 84.642 16.1528 85.0124 15.4147C85.2871 14.8207 85.6764 14.2585 86.1831 13.7251Z" fill="#003C7A"/>
<path fill-rule="evenodd" clip-rule="evenodd" d="M100.184 10.1317H107.092L107.004 12.2201L106.974 14.6161V18.4247L114.586 17.8107L114.556 15.3224V12.6812L114.468 10.1317H121.26L121.229 11.3908L121.2 13.3569V15.1377L121.171 16.9191L121.142 18.8546V21.527L121.171 23.1554L121.2 24.2917L121.229 27.6092L121.26 31.9713H114.468L114.526 27.5164L114.585 23.0325L106.974 23.646V26.3195L107.003 28.5013L107.092 31.9713H100.27L100.3 26.9646L100.329 21.8952C100.329 20.6054 100.304 18.5576 100.256 15.7529C100.208 12.9481 100.184 11.0727 100.184 10.1317Z" fill="#003C7A"/>
<path fill-rule="evenodd" clip-rule="evenodd" d="M123.293 10.1317H130.114L130.025 14.5243L129.938 20.3296L130.025 26.8712L130.114 31.9713H123.293L123.351 22.1416L123.293 10.1317Z" fill="#003C7A"/>
<path d="M138.941 21.8957L138.883 23.463L138.969 26.6259L139.03 28.1003L139.087 29.637L139.117 32.2777H132.297L132.325 29.023V26.8106L132.356 25.5208L132.384 23.4007L132.413 21.7422L132.444 18.2412L132.413 13.4798L132.297 9.82469H139.117L139.03 13.4181L138.969 17.0426L138.941 18.1182V19.8997H139.058L139.41 19.4386L139.907 18.7628L140.345 18.1477L141.224 16.9809L142.19 15.7217L143.127 14.5243L143.917 13.4487L144.502 12.6817L145.176 11.8208L146.053 10.6845L146.845 9.64059L151.702 14.1561L145.526 20.8218L146.465 21.8646L147.049 22.5109L148.424 24.0464L150.153 25.9813L151.967 28.0086L146.786 32.7399L145.586 31.0491L144.151 29.1148L143.245 27.8567L142.601 26.9646L142.073 26.1966L141.342 25.1821L139.058 21.8957H138.941Z" fill="#003C7A"/>
<path fill-rule="evenodd" clip-rule="evenodd" d="M71.2389 24.0153L68.7506 24.1683L69.5698 22.3262L70.2133 20.943L70.7406 19.8073L71.2678 18.7011L73.7266 23.8612L71.2389 24.0153ZM82.3022 26.4563L80.8394 24.1126L78.0302 19.5565L74.4875 13.8591L72.6716 10.9359L71.502 9.05719H71.2089L70.1254 10.8692L69.2189 12.4359L68.398 13.8491L67.6661 15.1695L66.6127 16.9815L65.4114 19.1327L64.4164 20.883L63.3925 22.6955L62.6895 23.8929L61.9587 25.1827L59.382 29.6988L64.9726 32.9841L65.4414 31.9107L65.967 30.7121L66.4364 29.6988L66.8752 28.7455L75.7455 28.1938L78.35 32.9841L84.1453 29.3806L82.3022 26.4563Z" fill="#003C7A"/>
<path d="M27.651 0L30.7188 4.84978L8.97042 42.8371L55.4009 42.8432L58.8402 47.9816L0 48L27.651 0Z" fill="#003C7A"/>
<path fill-rule="evenodd" clip-rule="evenodd" d="M47.7275 40.6819L47.6535 36.4317H47.9877L49.2414 38.3066L50.8275 40.6819H47.7275ZM42.8121 40.6819H41.5034L41.4294 36.4317H46.9155L46.9878 40.6819H42.8121ZM41.3493 31.7633H44.8671L46.886 34.7866L46.9021 35.6826H41.4161L41.3493 31.7633ZM41.2609 26.6159H41.4261L44.3649 31.0124H41.3365L41.2609 26.6159ZM36.2643 40.6819H35.2738L35.1998 36.4317H40.6803L40.7531 40.6819H36.2643ZM35.1197 31.7633H40.5985L40.6669 35.6826H35.1881L35.1197 31.7633ZM35.0313 26.6159H40.5118L40.5874 31.0124H35.1069L35.0313 26.6159ZM34.9467 21.7422H38.1697L40.4867 25.2099L40.4984 25.8634H35.0179L34.9467 21.7422ZM34.8628 16.7996H34.8672L37.6664 20.9892H34.934L34.8628 16.7996ZM31.409 40.6819H29.043L28.9702 36.4317H34.4506L34.5235 40.6819H31.409ZM28.8901 31.7633H34.3689L34.4373 35.6826H28.9568L28.8901 31.7633ZM28.8495 29.4485L28.1076 29.9012L28.1265 31.0124H26.2872L25.057 31.7633H28.1393L28.2077 35.6826H23.9068L23.7678 36.4323H28.221L28.2939 40.6825H22.8134L22.7856 39.0613L22.0403 39.3138L22.0637 40.6825H16.5354L15.3519 40.727L15.3274 40.6825H13.8441L14.6211 39.4189L14.5499 39.2915L15.1088 38.3955L15.299 38.3149L16.4553 36.4328H19.8296L20.4658 36.1681L20.5459 35.6831H16.9175L19.3257 31.7638H21.1861L21.3095 31.013H19.7873L21.8396 27.6737L21.8802 30.0224L22.6221 29.5558L22.5715 26.6165H27.2978L27.6059 26.4202L27.1788 25.8634H22.9519L25.4863 21.7422H27.9674L28.0097 24.1716L28.7577 24.0659L28.7188 21.7422H34.1976L34.2688 25.8634H33.0024L32.6781 26.6165H34.2816L34.3572 31.013H28.8767L28.8495 29.4485ZM26.9524 19.3591L27.8996 17.8162L27.9546 20.9892H25.9502L26.9524 19.3591ZM31.409 16.7996H34.1119L34.1842 20.9892H28.7038L28.6326 16.7996H31.409ZM31.409 12.1083L31.5625 11.8569L34.3628 16.046H28.9885L31.409 12.1083ZM49.2408 33.3049L31.612 6.4671L11.6506 41.3749H54.5411L49.2408 33.3049Z" fill="#003C7A"/>
<path d="M26.983 24.7561L33.3 23.859L30.7522 29.7722L29.4274 28.4457L24.1388 31.6826L22.8779 38.4389L15.9776 40.7893L14.9387 38.9334L20.9024 36.464L21.8774 30.5525L28.3223 26.4969L26.983 24.7561Z" fill="#EC2024"/>
</g>
<defs>
<clipPath id="clip0_8_8">
<rect width="177.67" height="48" fill="white"/>
</clipPath>
</defs>
</svg>
